HIERARCHY
ROOT hip
{
	OFFSET 0.000000 0.000000 0.000000 
	CHANNELS 6 Xposition Yposition Zposition Xrotation Zrotation Yrotation
	JOINT abdomen
	{
		OFFSET 0.000000 3.402643 0.000000 
		CHANNELS 3 Xrotation Zrotation Yrotation
		JOINT chest
		{
			OFFSET 0.000000 8.438565 -0.680529 
			CHANNELS 3 Xrotation Zrotation Yrotation
			JOINT neck
			{
				OFFSET 0.000000 10.207942 -0.272212 
				CHANNELS 3 Xrotation Zrotation Yrotation
				JOINT head
				{
					OFFSET 0.000000 3.130431 0.000000 
					CHANNELS 3 Xrotation Zrotation Yrotation
					End Site
					{
						OFFSET 0.000000 3.130435 0.000000 
					}
				}
			}
			JOINT lCollar
			{
				OFFSET 3.470700 6.669187 -0.816635 
				CHANNELS 3 Yrotation Zrotation Xrotation
				JOINT lShldr
				{
					OFFSET 3.198488 0.000000 0.000000 
					CHANNELS 3 Zrotation Yrotation Xrotation
					JOINT lForeArm
					{
						OFFSET 10.139888 0.000000 0.000000 
						CHANNELS 3 Yrotation Zrotation Xrotation
						JOINT lHand
						{
							OFFSET 8.370511 0.000000 0.000000 
							CHANNELS 3 Zrotation Yrotation Xrotation
							End Site
							{
								OFFSET 4.083176 0.000000 0.000000 
							}
						}
					}
				}
			}
			JOINT rCollar
			{
				OFFSET -3.470700 6.669187 -0.816635 
				CHANNELS 3 Yrotation Zrotation Xrotation
				JOINT rShldr
				{
					OFFSET -3.198488 0.000000 0.000000 
					CHANNELS 3 Zrotation Yrotation Xrotation
					JOINT rForeArm
					{
						OFFSET -10.139888 0.000000 0.000000 
						CHANNELS 3 Yrotation Zrotation Xrotation
						JOINT rHand
						{
							OFFSET -8.370511 0.000000 0.000000 
							CHANNELS 3 Zrotation Yrotation Xrotation
							End Site
							{
								OFFSET -4.083176 0.000000 0.000000 
							}
						}
					}
				}
			}
		}
	}
	JOINT lThigh
	{
		OFFSET 5.308129 -1.633274 1.361059 
		CHANNELS 3 Xrotation Zrotation Yrotation
		JOINT lShin
		{
			OFFSET -2.041588 -20.007561 0.000000 
			CHANNELS 3 Xrotation Zrotation Yrotation
			JOINT lFoot
			{
				OFFSET 0.000000 -19.190928 -1.224953 
				CHANNELS 3 Xrotation Yrotation Zrotation
				End Site
				{
					OFFSET 0.000000 -2.449906 4.627600 
				}
			}
		}
	}
	JOINT rThigh
	{
		OFFSET -5.308129 -1.633274 1.361059 
		CHANNELS 3 Xrotation Zrotation Yrotation
		JOINT rShin
		{
			OFFSET 2.041588 -20.007561 0.000000 
			CHANNELS 3 Xrotation Zrotation Yrotation
			JOINT rFoot
			{
				OFFSET 0.000000 -19.190928 -1.224953 
				CHANNELS 3 Xrotation Yrotation Zrotation
				End Site
				{
					OFFSET 0.000000 -2.449906 4.627600 
				}
			}
		}
	}
}
MOTION
Frames: 16
Frame Time: 0.016667
0.073412 53.041935 -1.906027 -12.459106 -2.782807 0.967553 30.128166 1.624784 1.152553 0.016196 2.792282 -1.944706 -9.375666 -0.852626 0.109245 9.338236 1.568063 -4.190821 -4.384241 -12.271071 -0.639585 -58.661175 4.747579 -9.205233 -21.944996 -5.000000 33.580002 -29.300388 -7.141843 17.044861 2.582947 13.333592 -0.710476 56.355209 2.617351 -0.137282 24.389469 5.000000 19.822395 45.633026 -14.017864 -11.249722 21.470434 21.121496 12.303744 3.305480 -6.844694 -0.696756 -5.161836 3.286963 -10.476892 22.946272 -6.533397 -14.829208 1.905525 2.622742 0.147133 -4.959923 -4.619511 8.737306 
0.072839 53.044434 -1.922271 -12.457256 -2.880642 0.703709 30.141262 1.688554 1.231589 0.018640 2.811872 -1.837354 -9.365919 -0.862282 0.110706 9.364186 1.519572 -4.083442 -4.345179 -12.271070 -0.639585 -58.694942 4.711001 -9.158574 -21.842627 -5.000000 33.713703 -29.278135 -7.202457 16.983604 2.738204 13.255551 -0.706436 56.471695 2.765131 0.074971 24.402647 5.000000 19.469683 45.947487 -13.745257 -11.855063 21.605848 21.110027 12.741122 3.286569 -6.842970 -0.694818 -5.144719 3.164108 -10.508327 22.828997 -6.523456 -14.577215 1.963279 2.592066 0.140952 -4.949187 -4.574282 8.724794 
0.073605 53.047688 -1.943062 -12.444817 -2.988194 0.439874 30.145565 1.765952 1.327102 0.021607 2.831468 -1.739298 -9.346465 -0.900905 0.116549 9.387583 1.490475 -4.014852 -4.306005 -12.261319 -0.639082 -58.726227 4.650991 -9.091188 -21.754488 -5.000000 33.850838 -29.294794 -7.205892 16.925341 2.912876 13.167756 -0.701890 56.675682 3.117332 0.554567 24.512005 5.000000 18.836239 45.844009 -13.430060 -12.664576 21.739393 21.127958 13.187078 3.255976 -6.879283 -0.682610 -5.127390 2.991736 -10.539150 22.705425 -6.532110 -14.320873 1.987151 2.548906 0.151997 -4.937846 -4.531231 8.722004 
0.075266 53.051437 -1.966886 -12.430825 -3.085925 0.165775 30.149996 1.857011 1.417622 0.024925 2.860834 -1.631970 -9.307503 -0.949183 0.123853 9.410163 1.461320 -3.975806 -4.266830 -12.251567 -0.638580 -58.764729 4.566054 -9.004620 -21.660654 -5.000000 34.005367 -29.334234 -7.166278 16.874435 3.087311 13.060454 -0.696332 56.922028 3.598249 1.209029 24.669256 5.000000 18.022295 45.482342 -13.094818 -13.631691 21.872103 21.131693 13.636371 3.225307 -6.915362 -0.680129 -5.140236 2.887164 -10.541743 22.541323 -6.532703 -14.012147 2.048977 2.524961 0.126295 -4.856527 -4.488450 8.730285 
0.077392 53.055435 -1.991725 -12.407221 -3.183590 -0.088297 30.154602 1.935231 1.513515 0.038416 2.899969 -1.505126 -9.288079 -0.997462 0.131156 9.433130 1.422402 -3.946520 -4.227655 -12.241816 -0.638078 -58.800957 4.466136 -8.892945 -21.581028 -5.000000 34.142952 -29.382452 -7.146968 16.846365 3.251993 12.953156 -0.690771 57.205360 4.191117 2.037982 24.923214 5.000000 17.046484 44.897133 -12.796518 -14.607261 21.995729 21.129610 14.095810 3.198027 -6.949622 -0.697037 -5.120838 2.778755 -10.545453 22.402555 -6.522560 -13.740597 2.084195 2.470387 0.128572 -4.830555 -4.470429 8.759749 
0.081376 53.060432 -2.020630 -12.402840 -3.281195 -0.332605 30.179567 2.032682 1.619041 0.062143 2.948871 -1.368033 -9.307771 -1.065052 0.141382 9.487567 1.344478 -3.936524 -4.168726 -12.212558 -0.636570 -58.839005 4.297866 -8.707911 -21.512877 -5.000000 34.240074 -29.480978 -7.158603 16.931660 3.387270 12.836107 -0.682533 57.599499 5.247950 3.494193 25.558599 5.000000 15.462715 43.396698 -12.593045 -15.602869 22.108603 21.152273 14.517924 3.167187 -6.985280 -0.704267 -5.065567 2.588119 -10.594633 22.263165 -6.514049 -13.478991 2.168203 2.436558 0.114186 -4.815967 -4.440620 8.740405 
0.085358 53.065430 -2.049533 -12.388435 -3.378741 -0.567724 30.204245 2.134777 1.714635 0.085526 2.997761 -1.231429 -9.337241 -1.132641 0.151606 9.541524 1.276309 -3.916783 -4.109798 -12.183302 -0.635063 -58.876846 4.133245 -8.508511 -21.447618 -5.000000 34.325634 -29.572704 -7.181163 17.021454 3.512678 12.709313 -0.675977 58.026321 6.289467 4.975143 26.170019 5.000000 13.886408 41.916969 -12.442310 -16.625027 22.219193 21.148508 14.946124 3.139681 -7.008453 -0.701546 -5.027785 2.375581 -10.642566 22.114433 -6.503833 -13.227661 2.250221 2.374385 0.118784 -4.784583 -4.450085 8.758461 
0.093304 53.069431 -2.079578 -12.386474 -3.437203 -0.753528 30.249590 2.210896 1.842629 0.090166 3.036887 -1.094328 -9.327716 -1.219543 0.164752 9.565439 1.188512 -3.994900 -4.050871 -12.154047 -0.633555 -58.902054 3.925210 -8.290675 -21.430395 -5.000000 34.383522 -29.707010 -7.149676 17.126892 3.618571 12.582519 -0.669417 58.503529 7.831312 7.201335 27.432020 5.000000 11.541663 39.578564 -12.576406 -17.152548 22.317076 21.129337 15.315891 3.107979 -7.022598 -0.689077 -4.993052 2.241006 -10.635535 21.997406 -6.493817 -13.006036 2.304656 2.321877 0.102119 -4.729693 -4.476989 8.778971 
0.102239 53.073181 -2.109905 -12.384889 -3.485871 -0.929580 30.295103 2.300417 1.965352 0.094415 3.076000 -0.977262 -9.318241 -1.316100 0.179358 9.570570 1.090975 -4.082592 -3.991945 -12.124789 -0.632048 -58.927601 3.709112 -8.077606 -21.435801 -5.000000 34.415810 -29.849121 -7.101710 17.238621 3.734130 12.445971 -0.662349 59.055031 9.486119 9.635969 28.816093 5.000000 9.050774 37.021378 -12.803780 -17.540466 22.396225 21.100466 15.649968 3.088740 -7.063174 -0.697237 -4.932402 2.094936 -10.622389 21.870174 -6.513204 -12.782489 2.369770 2.269652 0.096146 -4.702546 -4.513711 8.795694 
0.112673 53.077427 -2.140285 -12.396745 -3.515040 -1.047147 30.340937 2.389311 2.087342 0.099403 3.105347 -0.830391 -9.328288 -1.403001 0.192504 9.603561 1.003121 -4.229063 -3.942674 -12.085782 -0.630037 -58.949677 3.471586 -7.808513 -21.478251 -5.000000 34.379150 -29.991133 -7.053205 17.392765 3.810531 12.299679 -0.654773 59.612831 11.370393 12.413673 30.511415 5.000000 6.222008 34.251450 -13.297644 -17.512018 22.455965 21.092121 15.916875 3.060124 -7.096952 -0.684849 -4.880816 1.861792 -10.657388 21.775246 -6.533649 -12.618713 2.440991 2.250864 0.100093 -4.675826 -4.548421 8.823941 
0.125359 53.082428 -2.170740 -12.404896 -3.505243 -1.076388 30.405119 2.468023 2.184156 0.113793 3.124916 -0.684034 -9.367687 -1.499558 0.207109 9.654970 0.915173 -4.473176 -3.903062 -12.037023 -0.627523 -58.967667 3.190968 -7.485722 -21.591972 -5.000000 34.207466 -30.135714 -7.012145 17.592606 3.838126 12.153395 -0.647193 60.200188 13.617117 15.706543 32.642719 3.489959 2.919126 31.138746 -14.122890 -16.840780 22.476391 21.052816 16.109352 3.030200 -7.131131 -0.701713 -4.807700 1.747317 -10.608940 21.718271 -6.543467 -12.561713 2.491863 2.194333 0.103119 -4.668972 -4.580243 8.820589 
0.138042 53.087429 -2.201197 -12.422820 -3.495445 -1.105630 30.459826 2.558919 2.276178 0.128243 3.144478 -0.537145 -9.397308 -1.586459 0.220253 9.696703 0.837011 -4.707527 -3.873107 -11.978510 -0.624506 -58.987030 2.919122 -7.157586 -21.694399 -5.000000 34.050156 -30.285950 -6.963910 17.781778 3.873326 11.998015 -0.627542 60.919735 15.833225 19.055283 34.664005 1.448035 -0.240600 27.980944 -14.856141 -16.073662 22.505594 21.033937 16.278967 2.981651 -7.183391 -0.687485 -4.762063 1.584969 -10.581499 21.643970 -6.571519 -12.480262 2.521894 2.130307 0.075261 -4.644284 -4.606033 8.863375 
0.159733 53.092422 -2.224465 -12.451776 -3.397943 -0.978318 30.513283 2.597991 2.367185 0.143911 3.144507 -0.390823 -9.436874 -1.711982 0.239238 9.707705 0.758706 -5.097985 -3.804312 -11.939503 -0.622494 -58.983124 2.589860 -6.784359 -21.959047 -5.000000 33.691063 -30.379322 -6.914782 17.974718 3.883066 11.812064 -0.627490 61.361191 18.490330 22.597219 37.231022 -1.141275 -3.621178 24.557430 -16.213633 -14.191628 22.448919 20.975874 16.264359 2.942670 -7.210094 -0.693500 -4.678952 1.425795 -10.562206 21.644058 -6.639829 -12.588311 2.573963 2.112992 0.097540 -4.633864 -4.655564 8.884866 
0.181424 53.097424 -2.247734 -12.479735 -3.300410 -0.861323 30.576670 2.649356 2.452996 0.159019 3.154289 -0.253714 -9.476482 -1.837505 0.258222 9.719890 0.680471 -5.478825 -3.735517 -11.900493 -0.620482 -58.990349 2.259719 -6.411858 -22.215590 -5.000000 33.335194 -30.462299 -6.873124 18.159164 3.881005 11.626776 -0.617902 61.982784 21.109938 26.222540 39.631676 -4.023107 -6.771574 21.037010 -17.355642 -12.160821 22.373520 20.893970 16.243233 2.922306 -7.207878 -0.701282 -4.606318 1.260338 -10.556423 21.647007 -6.698942 -12.693698 2.612408 2.064619 0.119031 -4.628326 -4.766785 8.901826 
0.204744 53.101673 -2.267308 -12.495827 -3.163886 -0.606702 30.639338 2.682438 2.531532 0.154097 3.154296 -0.136660 -9.535663 -1.963029 0.277204 9.740625 0.611890 -5.976847 -3.686364 -11.871238 -0.618973 -58.978512 1.921965 -6.021699 -22.541052 -5.000000 32.880375 -30.497284 -6.874418 18.307625 3.857059 11.403139 -0.594805 62.415287 23.844870 29.525358 42.139168 -5.000000 -9.511810 17.345741 -18.693205 -9.361266 22.276733 20.836235 16.093187 2.872433 -7.238459 -0.686854 -4.535558 1.062220 -10.542960 21.692205 -6.737134 -12.923608 2.634396 2.036129 0.129799 -4.653225 -4.834330 8.936203 
0.229154 53.105419 -2.284418 -12.515488 -2.998015 -0.264332 30.693251 2.732509 2.617449 0.148630 3.144531 -0.019054 -9.614517 -2.107863 0.299106 9.780226 0.553004 -6.552993 -3.637212 -11.841982 -0.617464 -58.967358 1.570940 -5.628155 -22.915583 -5.000000 32.346989 -30.498343 -6.914604 18.403587 3.805568 11.149585 -0.581696 62.785225 26.661009 32.644512 44.690392 -5.000000 -11.864600 13.431431 -19.971485 -5.947135 22.094835 20.779449 15.841194 2.864845 -7.220468 -0.695440 -4.426400 0.843127 -10.558114 21.758863 -6.805755 -13.201453 2.631113 2.024989 0.110151 -4.660882 -4.857973 9.032033 
